<svg  xmlns="http://www.w3.org/2000/svg" width="20px" height="20px" viewbox="0 0 12 12">
<title>Settings</title>

   <path fill="orange" stroke-width="0.5" stroke-miterlimit="4" stroke="#333" d="m10.004563,1.004673c-0.46627,0 -0.93351,0.0595 -1.3807,0.12784c-0.0711,1.1464 -0.25115,2.2654 -1.2017,2.6591c-0.95268,0.39462 -1.8476,-0.28586 -2.7102,-1.0483c-0.7542,0.55049 -1.4432,1.215 -1.9943,1.9688c0.76546,0.86506 1.4698,1.7545 1.0739,2.7102c-0.39543,0.95468 -1.5331,1.1311 -2.6847,1.2017c-0.07,0.45231 -0.10227,0.90878 -0.10227,1.3807c0,0.47795 0.0306,0.94843 0.10227,1.4062c1.1516,0.0705 2.2892,0.19589 2.6847,1.1506c0.3959,0.95577 -0.3084,1.8963 -1.0739,2.7614c0.54837,0.74809 1.2455,1.3957 1.9943,1.9432c0.85987,-0.75912 1.7609,-1.416 2.7102,-1.0227c0.95468,0.39543 1.1311,1.5075 1.2017,2.6591c0.44717,0.0684 0.91441,0.10227 1.3807,0.10227c0.46628,0 0.90795,-0.034 1.3551,-0.10227c0.0705,-1.1516 0.24703,-2.2637 1.2017,-2.6591c0.94933,-0.39323 1.8504,0.2636 2.7102,1.0227c0.74877,-0.54748 1.4459,-1.1951 1.9943,-1.9432c-0.76545,-0.86507 -1.4698,-1.8056 -1.0739,-2.7614c0.39544,-0.95468 1.5586,-1.08 2.7102,-1.1506c0.0717,-0.45782 0.10227,-0.9283 0.10227,-1.4062c0,-0.4719 -0.0324,-0.92837 -0.10227,-1.3807c-1.1516,-0.0705 -2.3148,-0.24703 -2.7102,-1.2017c-0.39589,-0.95576 0.30841,-1.8452 1.0739,-2.7102c-0.5511,-0.75374 -1.2401,-1.4183 -1.9943,-1.9688c-0.86258,0.76243 -1.7576,1.4429 -2.7102,1.0483c-0.95056,-0.39373 -1.1306,-1.5127 -1.2017,-2.6591c-0.44716,-0.0684 -0.88883,-0.12784 -1.3551,-0.12784zm0,6.0597c1.6261,0 2.9403,1.3142 2.9403,2.9403s-1.3142,2.9403 -2.9403,2.9403s-2.9659,-1.3142 -2.9659,-2.9403s1.3398,-2.9403 2.9659,-2.9403z" />
</svg>